<svg width="400" height="75" viewBox="0 0 400 75" fill="none" xmlns="http://www.w3.org/2000/svg">
<path fill-rule="evenodd" clip-rule="evenodd" d="M31 0C13.8792 0 0 13.8792 0 31V34C0 51.1208 13.8792 65 31 65H369C370.602 65 372.176 64.8784 373.713 64.6441C376.257 64.2561 378.865 65.162 380.648 67.0175C384.162 70.6756 388.968 73.6654 395.357 74.6527C397.093 74.9211 398.116 72.7934 397.14 71.3322C395.111 68.2919 392.896 64.0132 391.579 58.965C391.086 57.076 391.77 55.1261 393.006 53.615C397.378 48.2716 400 41.4421 400 34V31C400 13.8792 386.121 0 369 0H31Z" fill="#F9B879"/>
</svg>
