<svg width="39" height="39" viewBox="0 0 39 39" fill="none" xmlns="http://www.w3.org/2000/svg">
<path fill-rule="evenodd" clip-rule="evenodd" d="M38.9916 1.46156C38.9555 1.10171 38.7996 0.751627 38.5239 0.47595C38.0582 0.0102518 37.3801 -0.113696 36.8014 0.104107L1.08818 12.6037C0.459311 12.8238 0.0285188 13.4055 0.00135896 14.0713C-0.0258009 14.737 0.356176 15.3518 0.96503 15.6224L16.4813 22.5186L23.3775 38.0349C23.6481 38.6437 24.2629 39.0257 24.9287 38.9986C25.5944 38.9714 26.1761 38.5406 26.3962 37.9117L38.8976 2.19335C38.985 1.95866 39.0164 1.70782 38.9916 1.46156ZM31.1905 5.51122L6.03048 14.3172L17.3525 19.3492L31.1905 5.51122ZM19.6506 21.6473L33.4888 7.80912L24.6827 32.9694L19.6506 21.6473Z" fill="black"/>
<path fill-rule="evenodd" clip-rule="evenodd" d="M38.9916 1.46156C38.9555 1.10171 38.7996 0.751627 38.5239 0.47595C38.0582 0.0102518 37.3801 -0.113696 36.8014 0.104107L1.08818 12.6037C0.459311 12.8238 0.0285188 13.4055 0.00135896 14.0713C-0.0258009 14.737 0.356176 15.3518 0.96503 15.6224L16.4813 22.5186L23.3775 38.0349C23.6481 38.6437 24.2629 39.0257 24.9287 38.9986C25.5944 38.9714 26.1761 38.5406 26.3962 37.9117L38.8976 2.19335C38.985 1.95866 39.0164 1.70782 38.9916 1.46156ZM31.1905 5.51122L6.03048 14.3172L17.3525 19.3492L31.1905 5.51122ZM19.6506 21.6473L33.4888 7.80912L24.6827 32.9694L19.6506 21.6473Z" fill="url(#paint0_linear_13_14)"/>
<defs>
<linearGradient id="paint0_linear_13_14" x1="0" y1="19.5" x2="38.9999" y2="19.5" gradientUnits="userSpaceOnUse">
<stop stop-color="#FEAC5E"/>
<stop offset="0.5" stop-color="#C779D0"/>
<stop offset="1" stop-color="#4BC0C8"/>
</linearGradient>
</defs>
</svg>
